<svg width="120" height="44" viewBox="0 0 120 44" fill="none" xmlns="http://www.w3.org/2000/svg">
<path fill-rule="evenodd" clip-rule="evenodd" d="M13.8564 35.7128C21.5091 40.1311 31.2945 37.5091 35.7128 29.8564C40.1311 22.2037 37.5091 12.4183 29.8564 8C22.2037 3.58172 12.4183 6.20372 8 13.8564C3.58172 21.5091 6.20372 31.2945 13.8564 35.7128Z" fill="#FFD148"/>
<mask id="mask0" mask-type="alpha" maskUnits="userSpaceOnUse" x="0" y="0" width="30" height="36">
<rect x="16" width="16" height="32" transform="rotate(30 16 0)" fill="white"/>
</mask>
<g mask="url(#mask0)">
<path fill-rule="evenodd" clip-rule="evenodd" d="M13.8564 35.7128C21.5091 40.1311 31.2945 37.5091 35.7128 29.8564C40.1311 22.2037 37.5091 12.4183 29.8564 8C22.2037 3.58172 12.4183 6.20372 8 13.8564C3.58172 21.5091 6.20372 31.2945 13.8564 35.7128Z" fill="#FF3C3C"/>
<path fill-rule="evenodd" clip-rule="evenodd" d="M13.8564 35.7128C18.1419 38.187 25.1977 33.9891 29.616 26.3364C34.0343 18.6837 34.1419 10.4742 29.8564 7.99999C25.5709 5.52575 18.5151 9.72371 14.0968 17.3764C9.67852 25.0291 9.57089 33.2386 13.8564 35.7128Z" fill="#FFA813"/>
</g>
<mask id="mask1" mask-type="alpha" maskUnits="userSpaceOnUse" x="13" y="8" width="31" height="36">
<rect x="29.8564" y="8" width="16" height="32" transform="rotate(30 29.8564 8)" fill="white"/>
</mask>
<g mask="url(#mask1)">
<path fill-rule="evenodd" clip-rule="evenodd" d="M13.8564 35.7128C21.5091 40.1311 31.2945 37.5091 35.7128 29.8564C40.1311 22.2037 37.5091 12.4183 29.8564 8C22.2037 3.58172 12.4183 6.20372 8 13.8564C3.58172 21.5091 6.20372 31.2945 13.8564 35.7128Z" fill="#852FFF"/>
<path fill-rule="evenodd" clip-rule="evenodd" d="M13.8564 35.7128C18.1419 38.187 25.1977 33.9891 29.616 26.3364C34.0343 18.6837 34.1419 10.4742 29.8564 7.99999C25.5709 5.52575 18.5151 9.72371 14.0968 17.3764C9.67852 25.0291 9.57089 33.2386 13.8564 35.7128Z" fill="#FFD148"/>
</g>
<mask id="mask2" mask-type="alpha" maskUnits="userSpaceOnUse" x="50" y="17" width="12" height="15">
<path fill-rule="evenodd" clip-rule="evenodd" d="M50.8564 17.8862H61.1806V31.8564H50.8564V17.8862Z" fill="white"/>
</mask>
<g mask="url(#mask2)">
<path fill-rule="evenodd" clip-rule="evenodd" d="M58.379 22.7605C58.379 21.4364 57.4194 20.5342 56.057 20.5342C54.6944 20.5342 53.7348 21.4364 53.7348 22.7605C53.7348 24.0847 54.6944 24.9864 56.057 24.9864C57.4194 24.9864 58.379 24.0847 58.379 22.7605ZM61.1806 18.1551V27.2701C61.1806 30.4938 58.6668 31.8565 56.1144 31.8565C54.1189 31.8565 52.4494 31.108 51.5663 29.5344L54.0228 28.1141C54.3875 28.786 54.9439 29.3235 56.2103 29.3235C57.5536 29.3235 58.379 28.6325 58.379 27.2701V26.3873C57.7457 27.1742 56.8246 27.6346 55.5772 27.6346C52.8525 27.6346 50.8564 25.4085 50.8564 22.7605C50.8564 20.1123 52.8525 17.8862 55.5772 17.8862C56.8246 17.8862 57.7457 18.3469 58.379 19.1335V18.1551H61.1806Z" fill="#181621"/>
</g>
<path fill-rule="evenodd" clip-rule="evenodd" d="M62.714 24.6985L65.3622 23.1635C65.8421 24.2764 66.6675 25.0248 68.1832 25.0248C69.6417 25.0248 70.0062 24.4491 70.0062 23.931C70.0062 23.1058 69.2387 22.7798 67.2236 22.223C65.2281 21.6666 63.2706 20.7073 63.2706 18.1356C63.2706 15.545 65.4581 14.0484 67.7804 14.0484C69.9868 14.0484 71.714 15.104 72.6927 17.08L70.1024 18.5962C69.6417 17.6369 69.0084 17.0418 67.7804 17.0418C66.8208 17.0418 66.341 17.5216 66.341 18.0591C66.341 18.673 66.6675 19.0952 68.7589 19.7283C70.7932 20.3425 73.0766 21.0524 73.0766 23.8927C73.0766 26.4831 71.0041 28.0184 68.0873 28.0184C65.2663 28.0184 63.4624 26.6749 62.714 24.6985Z" fill="#181621"/>
<path fill-rule="evenodd" clip-rule="evenodd" d="M77.8723 20.9184V24.3148C77.8723 25.1403 78.5822 25.2168 79.849 25.1403V27.7497C76.0878 28.1333 74.994 27.0013 74.994 24.3148V20.9184H73.4587V18.1551H74.994V15.4684H77.8723V18.1551H79.849V20.9184H77.8723Z" fill="#181621"/>
<path fill-rule="evenodd" clip-rule="evenodd" d="M90.7478 18.1551V27.7496H87.8692V26.8479C87.3511 27.5581 86.3918 28.0182 85.125 28.0182C83.1869 28.0182 81.5366 26.6367 81.5366 24.0458V18.1551H84.4149V23.6237C84.4149 24.8139 85.1638 25.37 86.0847 25.37C87.1399 25.37 87.8692 24.7563 87.8692 23.3939V18.1551H90.7478Z" fill="#181621"/>
<path fill-rule="evenodd" clip-rule="evenodd" d="M99.823 22.9522C99.823 21.5131 98.8634 20.6114 97.5393 20.6114C96.2155 20.6114 95.2558 21.5131 95.2558 22.9522C95.2558 24.3917 96.2155 25.2934 97.5393 25.2934C98.8634 25.2934 99.823 24.3917 99.823 22.9522ZM102.701 14.3167V27.7498H99.823V26.8481C99.1897 27.5771 98.2495 28.0184 96.9639 28.0184C94.45 28.0184 92.377 25.8117 92.377 22.9522C92.377 20.0931 94.45 17.8861 96.9639 17.8861C98.2495 17.8861 99.1897 18.3276 99.823 19.0566V14.3167H102.701Z" fill="#181621"/>
<mask id="mask3" mask-type="alpha" maskUnits="userSpaceOnUse" x="50" y="13" width="70" height="19">
<path fill-rule="evenodd" clip-rule="evenodd" d="M50.8564 31.8564H119.49V13.8564H50.8564V31.8564Z" fill="white"/>
</mask>
<g mask="url(#mask3)">
<path fill-rule="evenodd" clip-rule="evenodd" d="M104.81 27.7496H107.689V18.155H104.81V27.7496ZM104.523 15.5836C104.523 14.6431 105.309 13.8564 106.25 13.8564C107.19 13.8564 107.977 14.6431 107.977 15.5836C107.977 16.5238 107.19 17.3104 106.25 17.3104C105.309 17.3104 104.523 16.5238 104.523 15.5836Z" fill="#181621"/>
<path fill-rule="evenodd" clip-rule="evenodd" d="M116.611 22.9522C116.611 21.5896 115.652 20.6879 114.405 20.6879C113.157 20.6879 112.198 21.5896 112.198 22.9522C112.198 24.3149 113.157 25.2169 114.405 25.2169C115.652 25.2169 116.611 24.3149 116.611 22.9522ZM109.319 22.9522C109.319 20.093 111.583 17.8861 114.405 17.8861C117.225 17.8861 119.49 20.093 119.49 22.9522C119.49 25.8117 117.225 28.0184 114.405 28.0184C111.583 28.0184 109.319 25.8117 109.319 22.9522Z" fill="#181621"/>
</g>
</svg>
